<svg width="558" height="165" viewBox="0 0 558 165" fill="none" xmlns="http://www.w3.org/2000/svg">
<path d="M180.18 64.6704H165.95V50.1504H157.45V64.6704H143.22V73.1704H157.45V87.4004H165.95V73.1704H180.18V64.6704Z" fill="white"/>
<path d="M56.5098 93.9504H30.9498L56.5098 59.1004V93.9504ZM64.2698 93.9604V48.4004H56.0098L21.3398 94.4004V99.0304C21.3398 99.5604 21.4998 100.01 21.8098 100.37C22.1298 100.73 22.6198 100.92 23.2798 100.92H56.4898V119.67H64.2498V100.92H73.0998C73.7598 100.92 74.2498 100.74 74.5698 100.38C74.8898 100.02 75.0398 99.5704 75.0398 99.0404V93.9704H64.2598L64.2698 93.9604Z" fill="white"/>
<path d="M103.52 111.74C93.3401 111.74 85.0901 98.7704 85.0901 82.7604C85.0901 66.7504 93.3401 53.7803 103.52 53.7803C113.7 53.7803 121.95 66.7504 121.95 82.7604C121.95 98.7704 113.7 111.74 103.52 111.74ZM103.52 46.3604C89.2401 46.3604 77.6602 62.6603 77.6602 82.7703C77.6602 102.88 89.2401 119.18 103.52 119.18C117.8 119.18 129.38 102.88 129.38 82.7703C129.38 62.6603 117.8 46.3604 103.52 46.3604Z" fill="white"/>
<path d="M132.06 164.92H32.85C14.73 164.92 0 150.18 0 132.07V32.85C0 14.74 14.74 0 32.85 0H132.06C150.18 0 164.91 14.74 164.91 32.85V35.98H159.16V32.85C159.16 17.91 147 5.75 132.06 5.75H32.85C17.91 5.75 5.75 17.91 5.75 32.85V132.06C5.75 147 17.91 159.16 32.85 159.16H132.06C147 159.16 159.16 147 159.16 132.06V101.57H164.91V132.06C164.91 150.18 150.17 164.91 132.06 164.91V164.92Z" fill="white"/>
<path d="M233.03 24.2207C237.06 24.2207 240.75 24.8307 243.96 26.0007V33.7207C241.02 32.2207 237.4 31.4007 233.03 31.4007C222.58 31.4007 216.43 37.9607 216.43 48.8207C216.43 59.6807 222.64 66.2407 233.03 66.2407C237.74 66.2407 241.7 65.2207 244.78 63.3707V71.1607C241.23 72.6607 237.13 73.4107 232.62 73.4107C217.32 73.4107 207.96 63.8507 207.96 48.9607C207.96 34.0707 217.93 24.2407 233.03 24.2407V24.2207Z" fill="white"/>
<path d="M254.82 24.9004H262.94V47.4404L283.84 24.9004H293.54L275.37 43.9604L295.25 72.7104H285.41L269.64 49.9004L262.94 56.9304V72.7104H254.82V24.9004Z" fill="white"/>
<path d="M319.49 48.4704C326.52 48.4704 329.94 45.7404 329.94 40.0704C329.94 34.4004 326.52 31.6704 319.49 31.6704H310.68V48.4704H319.49ZM319.9 24.9004C331.51 24.9004 338.27 30.5704 338.27 39.9904C338.27 49.4104 331.3 55.0804 319.9 55.0804H310.68V72.7004H302.62V24.9004H319.9Z" fill="white"/>
<path d="M346.61 24.9004H354.73V61.7804L377.95 24.9004H386.97V72.7104H378.84L378.77 36.2404L355.83 72.7104H346.61V24.9004Z" fill="white"/>
<path d="M407.73 24.9004V44.5004H431.22V24.9004H439.42V72.7104H431.22V51.7404H407.73V72.7104H399.53V24.9004H407.73Z" fill="white"/>
<path d="M460.86 24.9004V72.7104H452.67V24.9004H460.86Z" fill="white"/>
<path d="M482.31 24.9004V44.5004H505.8V24.9004H514V72.7104H505.8V51.7404H482.31V72.7104H474.11V24.9004H482.31Z" fill="white"/>
<path d="M526.56 24.9004H557.36V32.1404H534.76V72.7104H526.56V24.9004Z" fill="white"/>
<path d="M221.67 132.791C229.02 132.791 233.01 129.991 233.01 124.881C233.01 119.771 229.58 117.601 222.72 117.601H218.59V110.741H221.6C228.39 110.741 231.68 108.291 231.68 103.671C231.68 99.4009 228.18 96.9509 221.53 96.9509C216.14 96.9509 211.52 98.1409 208.02 100.451V92.4709C211.87 90.6509 216.7 89.6709 222.16 89.6709C233.5 89.6709 240.29 94.6409 240.29 102.691C240.29 107.801 237.42 111.721 232.52 113.611C238.4 115.361 241.76 119.491 241.76 125.511C241.76 134.401 234.06 140.071 221.74 140.071C216.21 140.071 211.24 139.091 207.04 137.341V129.081C211.31 131.391 216.42 132.791 221.67 132.791Z" fill="white"/>
<path d="M281.8 132.02V97.7104H262.69L262.62 102.4C262.41 115.14 261.08 125.01 258.84 132.02H281.81H281.8ZM245.18 131.95H250.43C252.88 125.86 254.21 116.06 254.49 102.75L254.77 90.6404L254.63 90.3604H290.13V131.95H296.08V150.57H287.89V139.37H253.37V150.57H245.18V131.95Z" fill="white"/>
<path d="M324.71 132.721C334.37 132.721 340.6 125.721 340.6 114.871C340.6 104.021 334.37 97.0111 324.71 97.0111C315.05 97.0111 308.82 104.011 308.82 114.871C308.82 125.731 315.05 132.721 324.71 132.721ZM300.14 114.871C300.14 99.8811 310.22 89.6611 324.72 89.6611C339.22 89.6611 349.3 99.6011 349.3 114.871C349.3 130.141 339.29 140.071 324.72 140.071C310.15 140.071 300.14 130.131 300.14 114.871Z" fill="white"/>
<path d="M376.45 114.52C383.66 114.52 387.16 111.72 387.16 105.91C387.16 100.1 383.66 97.3004 376.45 97.3004H367.42V114.52H376.45ZM376.87 90.3604C388.77 90.3604 395.71 96.1704 395.71 105.83C395.71 115.49 388.57 121.3 376.87 121.3H367.42V139.37H359.16V90.3604H376.87Z" fill="white"/>
<path d="M426.08 132.721C435.74 132.721 441.97 125.721 441.97 114.871C441.97 104.021 435.74 97.0111 426.08 97.0111C416.42 97.0111 410.19 104.011 410.19 114.871C410.19 125.731 416.42 132.721 426.08 132.721ZM401.5 114.871C401.5 99.8811 411.58 89.6611 426.08 89.6611C440.58 89.6611 450.66 99.6011 450.66 114.871C450.66 130.141 440.65 140.071 426.08 140.071C411.51 140.071 401.5 130.131 401.5 114.871Z" fill="white"/>
<path d="M480.75 132.511C487.19 132.511 490.41 129.991 490.41 125.021C490.41 120.051 487.19 117.671 480.75 117.671H468.64V132.511H480.75ZM480.4 110.741C486.14 110.741 488.94 108.361 488.94 103.951C488.94 99.5406 486.14 97.2306 480.4 97.2306H468.64V110.741H480.4ZM460.52 90.3606H480.48C491.12 90.3606 497.49 94.9806 497.49 102.961C497.49 107.931 494.48 111.851 489.58 113.741C495.6 115.421 498.96 119.551 498.96 125.711C498.96 134.111 492.1 139.361 481.32 139.361H460.52V90.3506V90.3606Z" fill="white"/>
<path d="M509.31 85.7402C512.25 85.7402 514.28 87.9102 514.28 91.4802C514.28 96.4502 511.41 101 507.14 103.73L504.41 101.07C506.16 99.8102 507.42 97.8502 508.05 95.4702C505.81 94.8402 504.41 93.0902 504.41 90.6402C504.41 87.8402 506.51 85.7402 509.31 85.7402Z" fill="white"/>
<path d="M538.72 113.96H548.17V97.2304H538.44C531.16 97.2304 527.66 99.9603 527.66 105.63C527.66 111.3 531.3 113.96 538.72 113.96ZM537.6 120.61L524.72 139.37H515.41L529.27 119.28C522.83 117.11 518.91 112.28 518.91 105.48C518.91 96.1004 525.98 90.3604 537.81 90.3604H556.43V139.37H548.17V120.61H537.6Z" fill="white"/>
</svg>
